<?xml version="1.0" encoding="UTF-8"?>
<svg xmlns="http://www.w3.org/2000/svg" width="80" height="80" viewBox="0 0 80 80" fill="none">
  <g clip-path="url(#clip0_854_13912)">
    <path d="M30.3444 66.2069H26.2065C25.4447 66.2069 24.8271 65.5893 24.8271 64.8276C24.8271 64.0658 25.4447 63.4482 26.2065 63.4482H30.3444C31.1062 63.4482 31.7237 64.0658 31.7237 64.8276C31.7237 65.5893 31.1062 66.2069 30.3444 66.2069Z" fill="#0070CD"></path>
    <path d="M53.7926 66.2069H49.6547C48.8929 66.2069 48.2754 65.5893 48.2754 64.8276C48.2754 64.0658 48.8929 63.4482 49.6547 63.4482H53.7926C54.5544 63.4482 55.1719 64.0658 55.1719 64.8276C55.1719 65.5893 54.5544 66.2069 53.7926 66.2069Z" fill="#0070CD"></path>
    <path d="M49.6551 57.9312C49.6551 70.127 49.7171 69.4856 49.4758 70.3449C48.8506 72.7817 46.6535 74.4849 44.1378 74.4829H35.862C32.8149 74.4829 30.3447 72.0127 30.3447 68.9656V57.9312H49.6551Z" fill="#9AC1DC"></path>
    <path d="M35.8623 74.4829H44.1382V77.2415C44.1382 78.7651 42.9031 80.0002 41.3795 80.0002H38.6209C37.0974 80.0002 35.8623 78.7651 35.8623 77.2415V74.4829Z" fill="#0070CD"></path>
    <path d="M30.3447 62.0688H49.6551V64.8275H30.3447V62.0688Z" fill="#0070CD"></path>
    <path d="M49.6547 67.5864C49.7272 68.5098 49.6668 69.4388 49.4754 70.345H30.5237C30.3319 69.4389 30.2715 68.5098 30.3444 67.5864H49.6547Z" fill="#0070CD"></path>
    <path d="M63.4487 23.4484C63.4583 12.9168 56.4452 3.67074 46.3009 0.840924C36.1566 -1.98889 25.3701 2.29184 19.9268 11.3077C14.4836 20.3236 15.7192 31.8625 22.948 39.5215C27.7425 44.444 30.4008 51.0598 30.3452 57.9311H49.6556C49.5689 51.0992 52.1983 44.5123 56.9659 39.618C61.1353 35.2685 63.4587 29.4735 63.4487 23.4484Z" fill="#F8D53A"></path>
    <path d="M59.3101 23.4486C59.3101 9.61551 49.4466 -1.41897 37.7929 0.149306C22.1142 2.25827 15.0411 25.501 25.9556 39.5217C30.0199 44.7874 32.1688 51.2807 32.048 57.9314H47.9515C47.8039 51.3186 49.9274 44.855 53.968 39.6183C57.5023 34.975 59.3827 29.2835 59.3101 23.4486Z" fill="#F8D53A"></path>
    <path d="M22.0686 24.8277C21.3068 24.8277 20.6893 24.2101 20.6893 23.4483C20.4303 16.7273 23.9084 10.4138 29.7279 7.04145C30.1685 6.8197 30.6939 6.84982 31.1062 7.12047C31.5185 7.39112 31.7551 7.86117 31.7269 8.35357C31.6986 8.84597 31.4099 9.28591 30.9693 9.50766C30.6576 9.66214 23.4479 13.4511 23.4479 23.4483C23.4479 24.2101 22.8304 24.8277 22.0686 24.8277Z" fill="#F5EFCA"></path>
    <path d="M34.4828 6.8968C35.2446 6.8968 35.8621 6.27927 35.8621 5.51749C35.8621 4.75572 35.2446 4.13818 34.4828 4.13818C33.7211 4.13818 33.1035 4.75572 33.1035 5.51749C33.1035 6.27927 33.7211 6.8968 34.4828 6.8968Z" fill="#F5EFCA"></path>
    <path d="M33.1035 15.8623V32.414C33.0819 33.1154 33.4301 33.7767 34.0207 34.1559C34.6112 34.5351 35.3574 34.5765 35.9862 34.265L49.9338 25.9891C50.6125 25.6207 51.0352 24.9104 51.0352 24.1381C51.0352 23.3659 50.6125 22.6555 49.9338 22.2871L35.9862 14.0112C35.3574 13.6997 34.6112 13.7412 34.0207 14.1203C33.4301 14.4995 33.0819 15.1608 33.1035 15.8623Z" fill="#0070CD"></path>
    <path d="M8.27586 26.2074H1.37931C0.617538 26.2074 0 25.5898 0 24.828C0 24.0663 0.617538 23.4487 1.37931 23.4487H8.27586C9.03763 23.4487 9.65517 24.0663 9.65517 24.828C9.65517 25.5898 9.03763 26.2074 8.27586 26.2074Z" fill="#FB7921"></path>
    <path d="M78.6206 26.2074H71.724C70.9623 26.2074 70.3447 25.5898 70.3447 24.828C70.3447 24.0663 70.9623 23.4487 71.724 23.4487H78.6206C79.3824 23.4487 79.9999 24.0663 79.9999 24.828C79.9999 25.5898 79.3824 26.2074 78.6206 26.2074Z" fill="#FB7921"></path>
    <path d="M4.31974 40.9868C3.66147 40.9872 3.09465 40.5224 2.96613 39.8768C2.83762 39.2312 3.18322 38.5847 3.79146 38.333L10.1625 35.6944C10.8664 35.4026 11.6735 35.7367 11.9653 36.4406C12.257 37.1445 11.9229 37.9516 11.219 38.2433C4.33077 41.0958 4.71146 40.9868 4.31974 40.9868Z" fill="#FB7921"></path>
    <path d="M69.309 14.0694C68.6507 14.0698 68.0839 13.605 67.9554 12.9594C67.8269 12.3138 68.1725 11.6674 68.7807 11.4157L75.1518 8.77704C75.6071 8.5883 76.1285 8.65682 76.5196 8.95678C76.9107 9.25674 77.1121 9.74257 77.0479 10.2313C76.9837 10.72 76.6636 11.1373 76.2083 11.326C69.3214 14.1757 69.7007 14.0694 69.309 14.0694Z" fill="#FB7921"></path>
    <path d="M75.6799 40.9868C75.2868 40.9868 75.6496 41.0875 68.7834 38.2433C68.0795 37.9516 67.7454 37.1445 68.0371 36.4406C68.3289 35.7367 69.136 35.4026 69.8399 35.6944L76.2109 38.333C76.8197 38.5849 77.1653 39.2321 77.036 39.8781C76.9067 40.5241 76.3387 40.9885 75.6799 40.9868Z" fill="#FB7921"></path>
    <path d="M10.6907 14.0693C10.2975 14.0693 10.6603 14.1714 3.7941 11.3259C3.09022 11.0341 2.75613 10.227 3.04789 9.5231C3.33965 8.81923 4.14677 8.48514 4.85065 8.7769L11.2189 11.4128C11.8309 11.6622 12.18 12.3108 12.0511 12.959C11.9222 13.6073 11.3516 14.073 10.6907 14.0693Z" fill="#FB7921"></path>
  </g>
  <defs>
    <clipPath id="clip0_854_13912">
      <rect width="80" height="80" fill="white"></rect>
    </clipPath>
  </defs>
</svg>
