<?xml version="1.0" encoding="UTF-8"?>
<svg xmlns="http://www.w3.org/2000/svg" width="192" height="74" viewBox="0 0 192 74" fill="none">
  <path d="M126.787 21.0006C118.822 20.9471 109.112 24.2885 109.061 36.4236C109.01 48.4368 118.924 52.2282 126.787 51.9899C134.096 51.7696 142.165 49.715 142.534 40.6718L134.455 40.69C134.227 46.3727 129.745 47.4998 126.787 47.5093C123.752 47.5205 117.575 46.8745 117.478 36.5453C117.386 26.7957 123.055 25.4173 126.787 25.4588C130.519 25.5002 134.221 27.2612 134.262 31.7003L142.288 31.6934C142.206 26.2585 137.562 21.074 126.787 21.0006ZM0 21.5516V51.4009H7.81161V38.2277H23.6209V51.4009H31.4693V21.5508H23.6209V33.4975H7.81161V21.5508L0 21.5516ZM37.9499 21.5516V51.3991H45.8153V21.5516H37.9499ZM48.7265 21.5516V26.4891H60.1827V51.3948H67.9636V26.4882H79.4223V21.5508L48.7265 21.5516ZM146.365 21.5516V51.4009H154.176V38.2277H169.986V51.4009H177.797V21.5508H169.986V33.4975H154.177V21.5508L146.365 21.5516ZM184.126 21.5516V51.3991H192V21.5516H184.126ZM86.6884 21.5957L72.7001 51.4H81.4772L84.2049 44.7033L98.9855 44.6981L101.706 51.4H110.505L96.5805 21.5957H86.6884ZM91.6084 26.6359L97.0142 39.9533L86.1574 39.9602L91.6084 26.6359Z" fill="black"></path>
</svg>
