<?xml version="1.0" encoding="UTF-8"?>
<svg xmlns="http://www.w3.org/2000/svg" width="192" height="92" viewBox="0 0 192 92" fill="none">
  <path fill-rule="evenodd" clip-rule="evenodd" d="M144.821 44.9207C143.535 41.6337 140.426 39.0977 137.104 38.2759C127.994 35.8465 116.455 36.8117 110.167 44.4207C106.523 49.1003 104.38 56.1386 107.095 62.0692C108.417 65.5346 112.096 68.0347 115.561 68.6782C123.207 69.6783 133.066 70.1076 139.212 64.4987C144.963 59.7115 146.893 51.709 144.821 44.9207ZM125.959 58.9963C125.102 59.3171 123.708 59.4605 122.922 58.8529C121.1 57.8518 121.706 55.6017 121.92 54.1006C122.778 51.3136 123.743 47.384 127.208 46.8482C128.347 46.7376 129.78 47.2416 130.246 48.5634C130.566 52.6005 129.407 56.7063 125.959 58.9963ZM43.0837 22L36.653 40.6516L31.7643 22H18.7734L2.82324 67.5337H18.0015L24.0477 50.1701L28.5499 67.5337H42.3128L58.262 22H43.0837ZM68.2526 35.5845C70.9321 35.1911 73.7539 34.3344 75.2192 31.6898C76.291 29.5821 75.8985 27.0451 74.6126 25.1884C72.5407 23.009 69.682 22.7949 66.6459 22.9732C63.8589 23.3666 61.037 24.7591 60.037 27.6527C59.5728 29.4746 59.6794 31.6898 60.8946 33.1541C62.6796 35.3345 65.5742 35.6552 68.2526 35.5845ZM57.1961 38.6345L47.0352 67.5755H61.4414L71.6024 38.6345H57.1961Z" fill="black"></path>
  <path fill-rule="evenodd" clip-rule="evenodd" d="M112.915 38.5937H96.194L87.833 48.3682L96.965 22H82.3017L66.3525 67.5337H81.0158L85.1316 56.0868L87.4475 67.5337H102.754L100.18 53.6424L112.915 38.5937ZM178.758 38.248C172.328 38.248 168.083 41.0779 165.897 43.0073L167.568 38.6335H152.391L142.228 67.5745H157.406L162.295 53.6832C163.065 51.4969 164.351 50.4669 166.538 50.4669C168.725 50.4669 169.24 52.6533 168.596 54.4542L163.966 67.5745H178.629L185.19 48.7945C186.992 43.6497 185.19 38.248 178.758 38.248ZM186.159 61.5124C185.761 61.5111 185.367 61.5882 185 61.7392C184.632 61.8902 184.298 62.1122 184.016 62.3925C183.734 62.6727 183.51 63.0058 183.357 63.3727C183.204 63.7396 183.125 64.133 183.124 64.5305C183.123 64.9294 183.201 65.3244 183.353 65.6931C183.505 66.0617 183.729 66.3967 184.011 66.6787C184.293 66.9608 184.628 67.1844 184.996 67.3368C185.365 67.4891 185.76 67.5672 186.159 67.5666C186.557 67.5661 186.95 67.487 187.317 67.3341C187.685 67.1811 188.018 66.9572 188.298 66.6751C188.579 66.3931 188.801 66.0585 188.952 65.6905C189.103 65.3225 189.18 64.9283 189.178 64.5305C189.178 64.1341 189.1 63.7416 188.948 63.3753C188.796 63.0091 188.574 62.6763 188.294 62.396C188.013 62.1158 187.68 61.8935 187.314 61.7419C186.948 61.5903 186.555 61.5123 186.159 61.5124ZM186.159 67.202C185.808 67.2024 185.461 67.1335 185.137 66.9993C184.813 66.8651 184.519 66.6682 184.272 66.42C184.024 66.1717 183.828 65.877 183.695 65.5527C183.562 65.2285 183.494 64.8811 183.495 64.5305C183.496 64.1813 183.565 63.8354 183.699 63.5129C183.833 63.1904 184.029 62.8975 184.277 62.6509C184.524 62.4043 184.818 62.209 185.141 62.076C185.463 61.943 185.81 61.8751 186.159 61.876C186.863 61.8762 187.538 62.156 188.035 62.6538C188.533 63.1516 188.812 63.8267 188.812 64.5305C188.814 64.8803 188.747 65.227 188.614 65.5507C188.482 65.8744 188.287 66.1688 188.04 66.417C187.794 66.6652 187.5 66.8623 187.178 66.997C186.855 67.1317 186.509 67.2014 186.159 67.202Z" fill="black"></path>
  <path fill-rule="evenodd" clip-rule="evenodd" d="M187.713 63.7397C187.713 63.4538 187.584 63.153 187.331 63.0106C187.078 62.8602 186.792 62.8442 186.508 62.8442H185.034V66.2279H185.447V64.6671H186.208L187.175 66.2279H187.665L186.644 64.6671C187.243 64.6511 187.713 64.4051 187.713 63.7397ZM186.079 64.3374H185.447V63.1411H186.414C186.832 63.1411 187.293 63.2038 187.293 63.7278C187.292 64.4161 186.555 64.3374 186.079 64.3374Z" fill="black"></path>
</svg>
