<?xml version="1.0" encoding="UTF-8"?>
<svg xmlns="http://www.w3.org/2000/svg" width="192" height="74" viewBox="0 0 192 74" fill="none">
  <path d="M13.0762 42.4456C13.3393 43.1035 13.2559 43.9466 13.1275 44.4576C12.9029 45.3646 12.2869 46.2907 10.4644 46.2907C8.75736 46.2907 7.71776 45.3071 7.71776 43.8252V41.1873H0.382812V43.2823C0.382812 49.3502 5.17652 51.1834 10.3168 51.1834C15.2581 51.1834 19.3266 49.5099 19.9748 44.9686C20.3085 42.618 20.0646 41.0787 19.9491 40.5102C18.794 34.8128 8.42366 33.1138 7.64717 29.9265C7.53936 29.4564 7.53037 28.9691 7.6215 28.4958C7.81402 27.6207 8.41082 26.669 10.1178 26.669C11.7221 26.669 12.6526 27.6527 12.6526 29.1345V30.8207H19.4742V28.9046C19.4742 22.9772 14.1286 22.051 10.2654 22.051C5.40112 22.051 1.42883 23.6542 0.703676 28.0934C0.511158 29.307 0.479072 30.3928 0.767849 31.7597C1.95504 37.3166 11.6644 38.9262 13.0762 42.4456Z" fill="#034EA2"></path>
  <path d="M29.6458 22.9197L24.5762 50.1231H31.9625L35.7037 25.4363H35.8577L39.4963 50.1231H46.8441L41.8066 22.9133L29.6458 22.9197ZM70.941 22.9197L67.5719 43.7167H67.4115L64.0488 22.9197H52.902L52.2988 50.1231H59.1396L59.3065 25.6662H59.4605L64.0232 50.1231H70.9602L75.5293 25.6726H75.6769L75.8502 50.1231H82.6846L82.0814 22.9133L70.941 22.9197Z" fill="#034EA2"></path>
  <path d="M101.937 42.3946C102.2 43.0524 102.116 43.8956 101.988 44.4065C101.763 45.3135 101.147 46.2397 99.3247 46.2397C97.6177 46.2397 96.5781 45.2561 96.5781 43.7742V41.1363H89.2432V43.2313C89.2432 49.2992 94.0369 51.1323 99.1771 51.1323C104.118 51.1323 108.187 49.4589 108.835 44.9175C109.169 42.567 108.925 41.0277 108.809 40.4592C107.654 34.7618 97.284 33.0628 96.5075 29.8755C96.3997 29.4054 96.3907 28.9181 96.4819 28.4448C96.6744 27.5697 97.2712 26.618 98.9782 26.618C100.582 26.618 101.513 27.6016 101.513 29.0835V30.7697H108.335V28.8535C108.335 22.9262 102.989 22 99.1258 22C94.2615 22 90.2892 23.6032 89.564 28.0424C89.3715 29.2559 89.3394 30.3418 89.6282 31.7087C90.8154 37.2656 100.525 38.8752 101.937 42.3946Z" fill="#034EA2"></path>
  <path d="M124.878 46.0479C126.777 46.0479 127.361 44.7449 127.496 44.0807C127.554 43.7868 127.56 43.3908 127.56 43.0395V22.9196H134.478V42.42C134.479 43.0165 134.458 43.6131 134.414 44.2084C133.932 49.2863 129.902 50.9342 124.878 50.9342C119.847 50.9342 115.817 49.2863 115.335 44.2084C115.316 43.9401 115.265 42.9182 115.271 42.42V22.9132H122.189V43.0331C122.182 43.3908 122.195 43.7868 122.253 44.0807C122.381 44.7449 122.972 46.0479 124.878 46.0479ZM158.299 22.9196L158.671 44.2723H158.523L152.235 22.9196H142.095V49.8356H148.814L148.442 27.742H148.59L155.334 49.8356H165.069V22.9196H158.299ZM181.882 45.7669C183.859 45.7669 184.552 44.5214 184.674 43.7868C184.732 43.4866 184.738 43.1034 184.738 42.7649V38.8048H181.934V34.8447H191.617V42.1389C191.617 42.6499 191.605 43.0204 191.521 43.9274C191.072 48.8839 186.753 50.6532 181.908 50.6532C177.063 50.6532 172.751 48.8839 172.295 43.9274C172.218 43.0204 172.199 42.6499 172.199 42.1389V30.6929C172.199 30.2075 172.263 29.3516 172.314 28.9045C172.924 23.8139 177.063 22.1787 181.908 22.1787C186.753 22.1787 191.001 23.8011 191.502 28.8981C191.592 29.7668 191.566 30.6866 191.566 30.6866V31.5999H184.674V30.0734C184.674 30.0734 184.674 29.4346 184.59 29.0386C184.462 28.4382 183.949 27.0586 181.857 27.0586C179.867 27.0586 179.283 28.368 179.136 29.0386C179.052 29.3963 179.02 29.8818 179.02 30.3225V42.7585C179.02 43.1034 179.033 43.4866 179.084 43.7932C179.213 44.5214 179.906 45.7669 181.882 45.7669Z" fill="#034EA2"></path>
</svg>
