<?xml version="1.0" encoding="UTF-8"?>
<svg xmlns="http://www.w3.org/2000/svg" width="475" height="516" viewBox="0 0 475 516" fill="none">
  <g clip-path="url(#clip0_8_2)">
    <path d="M1 513.69C1 513.69 29.1731 502.841 81.8125 508.018C134.452 513.196 156.199 515.909 153.975 512.457C151.751 509.005 126.297 507.032 125.061 476.211C123.825 445.391 125.123 169.544 124.505 168.989C123.887 168.434 121.23 168.681 121.23 168.681C121.23 168.681 121.169 207.823 121.786 207.946C122.404 208.07 124.134 207.762 124.134 207.762C124.134 207.762 124.875 119.984 124.443 119.799C124.01 119.614 122.033 120.107 122.033 120.292C122.033 120.477 121.477 158.695 122.219 158.88C122.96 159.065 124.01 158.941 124.01 158.941C124.01 158.941 124.258 41.5754 125.061 35.781C125.864 29.9866 131.98 14.3913 144.213 7.36419C156.446 0.337057 168.927 2.18625 181.53 2.30958C194.134 2.43291 336.112 2.0631 340.066 2.55605C344.02 3.049 363.297 10.6928 368.363 21.7883C373.429 32.8838 373.058 37.8151 373.305 47.4312C373.552 57.0473 373.923 475.595 373.923 475.595C373.923 475.595 362.802 475.718 362.432 474.485C362.061 473.252 361.484 35.6165 361.484 35.6165M361.569 35.8566C359.221 28.4597 351.804 15.378 334.381 14.515C316.958 13.6521 165.013 13.4054 157.928 14.8026C150.844 16.1998 138.323 25.0763 137.004 37.7334C135.686 50.3905 135.851 471.034 136.675 476.705C137.499 482.376 144.171 497.499 155.786 499.389C167.402 501.279 332.487 502.348 342.537 499.389C352.587 496.43 358.435 486.567 360.001 482.951C361.566 479.335 361.566 476.047 362.06 475.965C362.554 475.883 373.923 476.705 373.923 477.444C373.923 478.184 371.08 494.827 359.836 503.58C348.592 512.333 339.077 511.964 328.821 512.703C318.565 513.443 156.816 513.628 156.013 512.519C155.21 511.409 156.94 508.697 158.423 508.635C159.906 508.574 475 508.265 475 508.265" stroke="#212529" stroke-width="4" stroke-miterlimit="10"></path>
    <path d="M154 510C135.574 502.189 129.338 495.076 127 476.5V36C135.151 12.7692 143.394 6.00412 164 4L339.5 4.5C358.49 10.4171 369 19 371 38.5C373 58 372 473.5 372 473.5L364.5 473L363.5 35.5C359.176 21.7626 348 12.5 335 12.5C322 12.5 178 11.5 162 12.5C146 13.5 136.255 28.1139 135 39.5L134.5 476.5C134.861 484.532 144.053 495.092 146 496.5L146.053 496.539C148.049 497.983 153.708 502.077 158 501.5C229.489 502.86 327.5 502.5 339 502C350.5 501.5 359.829 491.387 363.5 478L372 479C366.731 495.941 362.17 501.795 351.5 506.5H158L154 510Z" fill="white"></path>
    <path d="M146 496.5C144.053 495.092 134.861 484.532 134.5 476.5L135 39.5C136.255 28.1139 146 13.5 162 12.5C178 11.5 322 12.5 335 12.5C348 12.5 359.176 21.7626 363.5 35.5L364.5 473L372 473.5C372 473.5 373 58 371 38.5C369 19 358.49 10.4171 339.5 4.5L164 4C143.394 6.00412 135.151 12.7692 127 36V476.5C129.338 495.076 135.574 502.189 154 510L158 506.5H351.5C362.17 501.795 366.731 495.941 372 479L363.5 478C359.829 491.387 350.5 501.5 339 502C327.5 502.5 229.489 502.86 158 501.5C153.708 502.077 148.049 497.983 146.053 496.539M146 496.5L146.053 496.539M146 496.5C146.017 496.513 146.035 496.525 146.053 496.539M158.5 510.5C158.5 510.5 327.816 510.516 330.658 510.508M330.658 510.508C333.5 510.5 332.5 510.5 332.5 510.5L330.658 510.508Z" stroke="white"></path>
  </g>
  <defs>
    <clipPath id="clip0_8_2">
      <rect width="475" height="516" fill="white"></rect>
    </clipPath>
  </defs>
</svg>
