<?xml version="1.0" encoding="UTF-8"?>
<svg xmlns="http://www.w3.org/2000/svg" width="103" height="97" viewBox="0 0 103 97" fill="none">
  <path opacity="0.72" d="M102.699 52.2198C105.741 59.9192 85.327 75.1986 57.1033 86.3474C28.8802 97.4963 3.53536 100.292 0.493521 92.5935C-2.54772 84.894 17.8658 69.6147 46.0895 58.4658C74.3126 47.317 99.6574 44.5203 102.699 52.2198Z" fill="url(#paint0_radial_637_10595)"></path>
  <path d="M79.0437 18.793L74.4443 16.6501L84.4735 0L89.0735 2.14351L79.0437 18.793Z" fill="#E89A24"></path>
  <path d="M71.4632 22.2835L66.8633 20.14L70.6589 13.064L75.2582 15.2075L71.4632 22.2835Z" fill="#E79623"></path>
  <path d="M67.5798 22.3391L62.9805 20.1956L66.8635 20.1396L71.4635 22.2832L67.5798 22.3391Z" fill="#E79723"></path>
  <path d="M62.5183 32.7855L57.9189 30.642L62.9805 20.1958L67.5799 22.3393L62.5183 32.7855Z" fill="#E69322"></path>
  <path d="M50.697 47.1155L46.0977 44.972L57.9181 30.6421L62.5175 32.7856L50.697 47.1155Z" fill="#E9A429"></path>
  <path d="M36.9241 53.2569L32.3242 51.114L39.7126 38.9199L44.3119 41.0634L36.9241 53.2569Z" fill="#E89B24"></path>
  <path d="M29.948 51.4692L25.3486 49.3257L32.3241 51.114L36.924 53.2569L29.948 51.4692Z" fill="#E4861F"></path>
  <path d="M25.4167 66.4243L20.8174 64.2814L25.3483 49.3257L29.9477 51.4692L25.4167 66.4243Z" fill="#E4841F"></path>
  <path d="M20.8246 65.1723L16.2246 63.0288L20.8174 64.2811L25.4168 66.424L20.8246 65.1723Z" fill="#E4851F"></path>
  <path d="M89.0737 2.14355L88.1254 56.4528L15.8555 85.6515L16.1089 71.1247L20.8249 65.1725L25.4171 66.4242L29.948 51.4691L36.924 53.2568L44.3118 41.0633L50.6977 47.1155L62.5182 32.7856L67.5798 22.3394L71.4634 22.2834L75.2584 15.2074L79.0439 18.793L89.0737 2.14355Z" fill="#ECAF2F"></path>
  <path d="M16.1091 71.1245L11.5098 68.9816L16.2251 63.0288L20.8251 65.1723L16.1091 71.1245Z" fill="#E9A328"></path>
  <path d="M15.8552 85.6512L11.2559 83.5076L11.5093 68.9814L16.1086 71.1244L15.8552 85.6512Z" fill="#E16E1A"></path>
  <path d="M87.0671 23.4808L82.4678 21.3373L88.9572 11.6675L93.5565 13.8104L87.0671 23.4808Z" fill="#0D5FA8"></path>
  <path d="M81.3191 29.6473L76.7197 27.5044L82.4673 21.3374L87.0666 23.4809L81.3191 29.6473Z" fill="#0B66B9"></path>
  <path d="M75.4323 34.1581L70.833 32.0152L74.5227 26.2563L79.122 28.3993L75.4323 34.1581Z" fill="#0D5FA8"></path>
  <path d="M68.2406 44.9636L63.6406 42.8201L70.8338 32.0151L75.4332 34.158L68.2406 44.9636Z" fill="#0B66B9"></path>
  <path d="M59.1498 56.5777L54.5498 54.4342L60.3158 37.4277L64.9157 39.5712L59.1498 56.5777Z" fill="#0D5FA8"></path>
  <path d="M54.9109 54.8339L50.3115 52.6904L54.5503 54.4341L59.1503 56.5776L54.9109 54.8339Z" fill="#599D9D"></path>
  <path d="M47.3226 58.9395L42.7227 56.796L50.3115 52.6904L54.9108 54.8339L47.3226 58.9395Z" fill="#0B66B9"></path>
  <path d="M42.5398 58.7996L37.9404 56.6567L42.723 56.7959L47.3229 58.9394L42.5398 58.7996Z" fill="#0D5FA8"></path>
  <path d="M35.7107 68.294L31.1113 66.1505L37.9398 56.6567L42.5392 58.7996L35.7107 68.294Z" fill="#0B66B9"></path>
  <path d="M31.1081 67.6542L26.5088 65.5107L31.1117 66.1503L35.711 68.2938L31.1081 67.6542Z" fill="#0D5FA8"></path>
  <path d="M93.5561 13.8105L92.7732 58.6593L20.5039 87.8581L20.6937 76.9882C20.9584 77.0715 21.2922 77.021 21.6777 76.8651C24.76 75.6199 30.7907 68.0531 31.1084 67.6545L35.7113 68.2935L42.5398 58.7997L47.323 58.9389L54.9118 54.8334L59.1512 56.5771L64.9172 39.5707L68.241 44.963L75.4336 34.1581L79.1233 28.3992L81.3204 29.6474L87.0679 23.481L93.5561 13.8105Z" fill="#0B6FC9"></path>
  <mask id="mask0_637_10595" style="mask-type:luminance" maskUnits="userSpaceOnUse" x="16" y="65" width="16" height="13">
    <path d="M20.6937 76.988L16.0938 74.8445C16.3585 74.9278 16.6922 74.8772 17.0777 74.7213C20.16 73.4761 26.1908 65.9093 26.5085 65.5107L31.1084 67.6542C30.7907 68.0522 24.76 75.6197 21.6777 76.8648C21.2916 77.0207 20.9578 77.0713 20.6937 76.988Z" fill="white"></path>
  </mask>
  <g mask="url(#mask0_637_10595)">
    <path d="M20.6937 76.9882L16.0938 74.8447C16.1098 74.8495 16.1259 74.8543 16.1425 74.8584L20.7419 77.0019C20.7258 76.9978 20.7091 76.9936 20.6937 76.9882Z" fill="#5DA2A2"></path>
    <path d="M20.7419 77.0014L16.1426 74.8579C16.1777 74.8668 16.2146 74.8728 16.252 74.8775L20.852 77.021C20.8139 77.0169 20.7776 77.0103 20.7419 77.0014Z" fill="#60A6A6"></path>
    <path d="M20.8519 77.0214L16.252 74.8779C16.2954 74.8827 16.34 74.8851 16.3864 74.8845L20.9857 77.028C20.9405 77.0286 20.8953 77.0262 20.8519 77.0214Z" fill="#0D5FA8"></path>
    <path d="M20.9861 77.028L16.3867 74.8845C16.4444 74.8839 16.5039 74.8786 16.5652 74.8696L21.1651 77.0131C21.1033 77.0221 21.0438 77.0268 20.9861 77.028Z" fill="#0D5FA8"></path>
    <path d="M21.1644 77.0123L16.5645 74.8688C16.6525 74.8557 16.7453 74.8343 16.8417 74.8052L21.4416 76.9487C21.3446 76.9778 21.2525 76.9992 21.1644 77.0123Z" fill="#0D5FA8"></path>
    <path d="M21.4417 76.9488L16.8418 74.8053C16.9179 74.7821 16.9965 74.7541 17.0774 74.7214C17.2523 74.6506 17.4367 74.5596 17.6289 74.4507L22.2282 76.5942C22.036 76.7031 21.8516 76.7941 21.6767 76.8649C21.597 76.8976 21.5179 76.9256 21.4417 76.9488Z" fill="#0D5FA8"></path>
    <path d="M22.2283 76.5943L17.6289 74.4508C18.1346 74.1641 18.6956 73.7542 19.2822 73.2651L23.8821 75.4086C23.295 75.8977 22.7345 76.3082 22.2283 76.5943Z" fill="#0D5FA8"></path>
    <path d="M23.8822 75.4086L19.2822 73.2651C20.882 71.9307 22.6751 70.0091 24.0761 68.4111L28.676 70.5546C27.275 72.1526 25.4819 74.0742 23.8822 75.4086Z" fill="#0B66B9"></path>
    <path d="M28.6761 70.5539L24.0762 68.4104C25.4076 66.8916 26.3857 65.6648 26.5082 65.5107L31.1082 67.6542C30.9856 67.8083 30.0076 69.0357 28.6761 70.5539Z" fill="#0D5FA8"></path>
  </g>
  <path d="M20.5042 87.858L15.9043 85.7145L16.0941 74.8447L20.694 76.9882L20.5042 87.858Z" fill="#0D5FA8"></path>
  <path d="M93.8933 31.3154L89.2939 29.1719L93.365 30.7306L97.9649 32.8741L93.8933 31.3154Z" fill="#B8A700"></path>
  <path d="M88.972 48.8917L84.3721 46.7482L89.2939 29.1719L93.8932 31.3154L88.972 48.8917Z" fill="#B8A700"></path>
  <path d="M78.406 47.3406L73.8066 45.1971L79.1853 40.5889L83.7846 42.7324L78.406 47.3406Z" fill="#DDC900"></path>
  <path d="M71.8529 60.6819L67.2529 58.5384L73.8066 45.1973L78.4059 47.3408L71.8529 60.6819Z" fill="#B8A700"></path>
  <path d="M65.7283 59.0698L61.1289 56.9263L67.253 58.5385L71.853 60.682L65.7283 59.0698Z" fill="#B8A700"></path>
  <path d="M56.0046 67.9746L51.4053 65.8311L61.1287 56.9263L65.728 59.0698L56.0046 67.9746Z" fill="#DDC900"></path>
  <path d="M44.7943 73.9634L40.1943 71.8199L47.3435 63.5386L51.9429 65.6821L44.7943 73.9634Z" fill="#DDC900"></path>
  <path d="M35.7181 75.1959L31.1182 73.0524L40.1949 71.8203L44.7948 73.9638L35.7181 75.1959Z" fill="#FFF300"></path>
  <path d="M93.893 31.3154L97.9646 32.8741L97.4744 60.9485L25.2051 90.1472L25.3122 84.0059L35.7174 75.1957L44.7941 73.9636L51.9427 65.6823L56.0042 67.9745L65.7276 59.0697L71.8523 60.682L78.4054 47.3408L83.784 42.7326L88.9718 48.8918L93.893 31.3154Z" fill="#F8D53A"></path>
  <path d="M25.3128 84.0059L20.7129 81.863L31.1181 73.0522L35.718 75.1957L25.3128 84.0059Z" fill="#DDC900"></path>
  <path d="M25.2054 90.1471L20.6055 88.0036L20.7126 81.8628L25.3125 84.0057L25.2054 90.1471Z" fill="#B8A700"></path>
  <defs>
    <radialGradient id="paint0_radial_637_10595" cx="0" cy="0" r="1" gradientUnits="userSpaceOnUse" gradientTransform="translate(51.8041 72.1802) rotate(-21.6344) scale(53.1733 14.758)">
      <stop stop-color="#ACACAC"></stop>
      <stop offset="1" stop-color="#ACACAC" stop-opacity="0"></stop>
    </radialGradient>
  </defs>
</svg>
