<?xml version="1.0" encoding="UTF-8"?>
<svg xmlns="http://www.w3.org/2000/svg" width="93" height="83" viewBox="0 0 93 83" fill="none">
  <path d="M34.0307 54.5547H0.0888672V63.2246H34.0307V54.5547Z" fill="url(#paint0_linear_637_10562)"></path>
  <path d="M23.0176 29.0107V56.8925C23.0176 57.4411 23.2411 57.8256 23.6017 58.0037C23.6015 58.0038 34.0314 63.2246 34.0314 63.2246L33.3787 34.1925L23.0176 29.0107Z" fill="#02447E"></path>
  <path opacity="0.3" d="M33.4451 62.9312C28.5815 58.0116 25.3096 48.824 25.3096 38.3009C25.3096 35.0733 25.6179 31.9717 26.1851 29.0799L23.0176 29.0107V56.8925C23.0176 57.4412 23.2411 57.8257 23.6017 58.0037C23.6015 58.0039 33.4451 62.9312 33.4451 62.9312Z" fill="url(#paint1_linear_637_10562)"></path>
  <path opacity="0.3" d="M33.3788 34.1925L23.0176 29.0107V48.3447L33.3788 35.1303V34.1925Z" fill="url(#paint2_linear_637_10562)"></path>
  <path d="M49.7081 12.4799L42.8952 3.841L36.8172 0.801411C34.423 -0.395958 31.5105 0.506773 30.2132 2.84839L15.3599 29.6577C14.679 30.8867 14.8956 31.9361 15.6228 32.2183L25.8796 37.3524L42.0509 19.492L48.1374 16.4481C49.7776 15.6278 50.7059 13.2827 49.7081 12.4799Z" fill="#085EAC"></path>
  <path opacity="0.3" d="M15.36 29.6576C14.679 30.8866 14.8956 31.9359 15.6228 32.2182L25.8797 37.3523L27.2264 35.8649C22.9222 29.3186 20.4547 20.4618 26.3296 9.85791L15.36 29.6576Z" fill="url(#paint3_linear_637_10562)"></path>
  <path d="M42.8955 3.84082L25.7214 34.8392C24.7237 36.64 25.6519 38.0566 27.2922 37.2363L33.3787 34.1924V62.0741C33.3787 63.167 34.2647 63.6099 35.3576 63.0633L50.4335 55.5238C51.5264 54.9772 52.4124 53.6481 52.4124 52.5552V24.6735L58.4989 21.6296C60.1391 20.8093 61.0673 18.4643 60.0696 17.6614L42.8955 3.84082Z" fill="#0B6FC9"></path>
  <path opacity="0.6" d="M36.999 62.2426L50.4332 55.524C51.5261 54.9774 52.4121 53.6484 52.4121 52.5555V24.6737L58.4987 21.6298C60.1389 20.8095 61.0671 18.4645 60.0694 17.6616L51.3132 10.6152L36.999 62.2426Z" fill="#1783E4"></path>
  <path d="M26.4025 37.6406C26.1828 37.6406 25.9801 37.5938 25.8022 37.4994L15.5488 32.3671L15.6976 32.0698L25.9545 37.204C26.2786 37.3758 26.7261 37.334 27.2178 37.0881L33.0201 34.1862L33.1688 34.4836L27.3665 37.3854C27.0272 37.555 26.6994 37.6406 26.4025 37.6406Z" fill="url(#paint4_linear_637_10562)"></path>
  <path d="M74.8129 73.564H40.8711V82.2339H74.8129V73.564Z" fill="url(#paint5_linear_637_10562)"></path>
  <path d="M84.7967 62.8454L91.965 48.7998L81.5351 43.579C81.1843 43.3559 80.6698 43.3492 80.0553 43.6566L73.9688 46.7005L84.7967 62.8454Z" fill="#D4B113"></path>
  <path d="M54.9353 56.2192L48.8488 59.2632C47.2086 60.0835 46.2803 62.4285 47.2781 63.2314L64.035 76.7164C64.3123 76.9395 64.6126 77.1323 64.9309 77.2917L74.882 82.2728L65.3652 61.4401L54.9353 56.2192Z" fill="#D4B113"></path>
  <path d="M65.2869 61.4009L54.935 56.2192L48.8485 59.2632C47.9773 59.6988 47.3071 60.5646 47.0195 61.4009L65.2869 61.4009Z" fill="#E8C116"></path>
  <path d="M83.8411 22.943L73.4112 17.7222C73.0514 17.5307 72.5483 17.5505 71.9903 17.8296L56.9145 25.3691C55.8215 25.9157 54.9355 27.2448 54.9355 28.3377V56.2194L65.3654 61.4402L83.8411 22.943Z" fill="#FFD414"></path>
  <path d="M74.8135 82.2336L57.6394 68.4131C56.6417 67.6102 57.5699 65.2652 59.2101 64.4449L65.2967 61.401V33.5192C65.2967 32.4262 66.1827 31.0972 67.2756 30.5506L82.3514 23.011C83.4444 22.4644 84.3303 22.9073 84.3303 24.0002V51.882L90.4169 48.838C92.0571 48.0177 92.9853 49.4343 91.9876 51.2351L74.8135 82.2336Z" fill="#F8D53A"></path>
  <path d="M57.5352 68.5427C57.175 68.2529 57.0116 67.7685 57.0749 67.1789C57.1792 66.2065 57.9207 64.9041 59.1358 64.2964L65.2224 61.2524L65.371 61.5498L59.2844 64.5938C58.1878 65.1422 57.4977 66.3534 57.4053 67.2145C57.3694 67.5492 57.3989 68.0064 57.7436 68.2838L57.5352 68.5427Z" fill="#E0C239"></path>
  <path d="M65.4623 61.401H65.1299V33.5193C65.1299 32.3714 66.0589 30.9731 67.2007 30.402L82.2765 22.8625C82.8916 22.5549 83.4884 22.5292 83.9137 22.7921C84.2891 23.0241 84.4959 23.4532 84.4959 24.0004H84.1635C84.1635 23.5728 84.0127 23.244 83.7389 23.0748C83.4136 22.874 82.935 22.9048 82.4251 23.1598L67.3493 30.6994C66.3088 31.2197 65.4622 32.4847 65.4622 33.5193L65.4623 61.401Z" fill="#E0C239"></path>
  <path opacity="0.6" d="M83.8806 65.8668L91.9871 51.2352C92.9848 49.4344 92.0566 48.0178 90.4163 48.8381L84.3298 51.882V24.0002C84.3298 22.9073 83.4438 22.4644 82.3509 23.011L69.3877 29.494L83.8806 65.8668Z" fill="#FFE77B"></path>
  <defs>
    <linearGradient id="paint0_linear_637_10562" x1="30.6255" y1="58.8896" x2="0.883549" y2="58.8896" gradientUnits="userSpaceOnUse">
      <stop stop-color="#0B6FC9" stop-opacity="0.22"></stop>
      <stop offset="0.624381" stop-color="white"></stop>
    </linearGradient>
    <linearGradient id="paint1_linear_637_10562" x1="28.2313" y1="62.9312" x2="28.2313" y2="29.0108" gradientUnits="userSpaceOnUse">
      <stop stop-color="#7E9FFF"></stop>
      <stop offset="1" stop-color="#5C75E0"></stop>
    </linearGradient>
    <linearGradient id="paint2_linear_637_10562" x1="18.1841" y1="43.5112" x2="30.4408" y2="31.2545" gradientUnits="userSpaceOnUse">
      <stop stop-color="#7E9FFF"></stop>
      <stop offset="1" stop-color="#5C75E0"></stop>
    </linearGradient>
    <linearGradient id="paint3_linear_637_10562" x1="21.0873" y1="37.3523" x2="21.0873" y2="9.85788" gradientUnits="userSpaceOnUse">
      <stop stop-color="#7E9FFF"></stop>
      <stop offset="1" stop-color="#5C75E0"></stop>
    </linearGradient>
    <linearGradient id="paint4_linear_637_10562" x1="24.3588" y1="37.6406" x2="24.3588" y2="32.0699" gradientUnits="userSpaceOnUse">
      <stop stop-color="#3653B3"></stop>
      <stop offset="0.9949" stop-color="white"></stop>
      <stop offset="1" stop-color="#F7F8FC"></stop>
    </linearGradient>
    <linearGradient id="paint5_linear_637_10562" x1="71.4077" y1="77.8989" x2="41.6658" y2="77.8989" gradientUnits="userSpaceOnUse">
      <stop stop-color="#D4B113" stop-opacity="0.24"></stop>
      <stop offset="0.790278" stop-color="white"></stop>
    </linearGradient>
  </defs>
</svg>
